<svg width="46" height="46" fill="none" xmlns="http://www.w3.org/2000/svg"><circle opacity=".4" cx="23" cy="23" r="23" fill="#7B7E85"/><path d="M22.14 15c-1.58 0-2.39.17-3.13.56-.62.33-1.12.83-1.45 1.45-.4.74-.56 1.55-.56 3.13v5.72c0 1.58.17 2.39.57 3.13.33.63.81 1.1 1.44 1.44.74.4 1.55.57 3.13.57h1.72c1.58 0 2.39-.17 3.13-.57A3.45 3.45 0 0 0 28.44 29c.4-.74.56-1.55.56-3.13v-5.72c0-1.58-.17-2.39-.57-3.13A3.45 3.45 0 0 0 27 15.56c-.74-.4-1.55-.56-3.13-.56h-1.72Zm0-2h1.72c2.01 0 3.1.28 4.07.8.97.51 1.76 1.3 2.27 2.27.52.98.8 2.06.8 4.07v5.72c0 2.01-.28 3.1-.8 4.07a5.45 5.45 0 0 1-2.27 2.27c-.98.52-2.06.8-4.07.8h-1.72c-2.01 0-3.1-.28-4.07-.8a5.45 5.45 0 0 1-2.27-2.27c-.52-.98-.8-2.06-.8-4.07v-5.72c0-2.01.28-3.1.8-4.07a5.45 5.45 0 0 1 2.27-2.27c.98-.52 2.06-.8 4.07-.8ZM22 17h2v5h-2v-5Z" fill="#fff"/></svg>